:SAMPLES-PER-SECOND 30
:FULLY-SPECIFIED
:DEGREES
68
root  38.001 34.9729 -3.88404 149.034 -81.2396 -149.04
RightUpLeg  -31.7455 -6.25985 11.6222
RightLeg  55.8078 -1.9424 -3.53098
RightFoot  -20.5757 -0.905781 -9.49592
RightToes  0.000482159 0.542163 -0.142577
Spine  29.5005 -5.68109 5.45525
Spine1  -3.06569 -8.02236 20.6392
HEad  -40.5829 24.9593 -31.8054
LeftShoulder1  11.8064 -15.2441 -54.8297
LeftArm  -8.62284 11.0362 -24.586
LeftForeArm  26.3477 -31.4102 -5.33181
LeftHand  -0.25398 0.0180481 5.50724
RightShoulder  8.53954 11.5676 49.6066
RightArm  -7.32788 -3.47556 17.4176
RightForeArm  13.2382 66.8292 26.3973
RightHand  -8.34849 19.82 -37.4825
LeftUpLeg  -18.6575 10.5927 0.919234
LeftLeg  91.2045 -1.33048 20.765
LeftFoot  -17.1099 0.189915 1.66709
LeftToes  1.06247e-005 4.65854e-005 -8.18502e-006
69
root  36.4141 35.4019 -3.77224 158.115 -78.4029 -160.212
RightUpLeg  -25.8098 -6.19754 9.93959
RightLeg  54.3871 -0.639354 -1.41081
RightFoot  -21.0718 -0.928398 -9.20678
RightToes  0.000482159 0.542163 -0.142577
Spine  30.309 -4.77966 10.7191
Spine1  -3.38793 -4.27095 12.9546
HEad  -39.1423 21.805 -32.3909
LeftShoulder1  10.7484 -14.9083 -50.9466
LeftArm  -21.3996 14.422 -15.1157
LeftForeArm  22.9718 -31.4657 -5.61985
LeftHand  -0.25398 0.0180481 5.50724
RightShoulder  8.6 12.3086 47.6113
RightArm  -9.31579 26.6274 20.2757
RightForeArm  22.2305 67.9928 26.8886
RightHand  -7.46025 18.4718 -35.5794
LeftUpLeg  -35.7822 10.1999 1.29489
LeftLeg  104.283 -5.12336 16.0882
LeftFoot  -17.1119 0.21742 2.27292
LeftToes  1.06247e-005 4.65854e-005 -8.18502e-006
70
root  34.7974 36.3788 -3.87695 178.063 -77.0308 177.035
RightUpLeg  -17.9571 -4.88993 4.09279
RightLeg  50.3257 -0.0235807 -0.37874
RightFoot  -22.0058 -1.01152 -9.31352
RightToes  0.000482159 0.542163 -0.142577
Spine  32.4602 -2.83253 13.2288
Spine1  -4.07568 0.571755 1.32058
HEad  -35.4264 14.6702 -27.8421
LeftShoulder1  9.29133 -14.9534 -43.8265
LeftArm  -31.008 9.39208 -4.79368
LeftForeArm  27.8258 -39.4657 -7.48544
LeftHand  -0.25398 0.0180481 5.50724
RightShoulder  6.78537 12.2363 36.9945
RightArm  -21.3066 48.0428 20.0003
RightForeArm  30.6956 71.3629 32.7562
RightHand  -7.18968 17.7649 -35.352
LeftUpLeg  -51.451 9.91753 -0.724458
LeftLeg  108.485 -4.87872 11.9566
LeftFoot  -17.4081 0.177243 1.37941
LeftToes  1.06247e-005 4.65854e-005 -8.18502e-006
71
root  33.0908 38.1375 -4.29117 -154.978 -75.459 146.817
RightUpLeg  -7.83222 -2.57752 -4.18538
RightLeg  41.7073 -0.60505 -0.796353
RightFoot  -19.5828 -0.711739 -8.15051
RightToes  0.000482159 0.542163 -0.142577
Spine  36.1854 -1.03708 11.3181
Spine1  -4.69625 4.1429 -11.2114
HEad  -32.2002 6.42423 -20.71
LeftShoulder1  7.51065 -15.4619 -33.5729
LeftArm  -39.5398 -2.53157 3.02351
LeftForeArm  34.5855 -48.5359 -10.1036
LeftHand  -0.25398 0.0180481 5.50724
RightShoulder  3.84193 10.3647 21.1883
RightArm  -48.1245 54.4298 7.46414
RightForeArm  42.7128 76.4575 49.6402
RightHand  -7.9591 18.6752 -37.4528
LeftUpLeg  -62.7539 10.1563 -5.38275
LeftLeg  105.207 -3.81986 11.3057
LeftFoot  -17.9396 0.108957 0.0313981
LeftToes  1.06247e-005 4.65854e-005 -8.18502e-006
72
root  31.1806 40.7444 -4.94085 -129.431 -73.1315 119.812
RightUpLeg  3.19807 -4.27618 -12.5302
RightLeg  26.0735 0.217041 -0.557202
RightFoot  -6.60768 -0.00947815 -3.42719
RightToes  0.000482159 0.542163 -0.142577
Spine  38.1657 0.346349 6.06621
Spine1  -5.07848 5.1318 -19.5799
HEad  -28.9246 0.512927 -14.1912
LeftShoulder1  5.17973 -15.561 -20.6716
LeftArm  -48.6983 -13.6945 7.22009
LeftForeArm  39.5369 -56.6517 -13.656
LeftHand  -0.25398 0.0180481 5.50724
RightShoulder  1.3858 6.47951 6.11098
RightArm  -67.6205 45.2532 -3.57409
RightForeArm  42.7612 77.1532 56.6402
RightHand  -9.06813 20.1821 -39.9254
LeftUpLeg  -71.2938 10.2955 -11.4909
LeftLeg  98.1864 -2.59919 12.7467
LeftFoot  -18.3366 0.0260919 -1.38214
LeftToes  1.06247e-005 4.65854e-005 -8.18502e-006
73
root  29.1041 43.5329 -5.6558 -108.17 -71.1757 99.9444
RightUpLeg  12.525 -11.9249 -19.8757
RightLeg  7.41731 3.06519 0.872501
RightFoot  16.0427 -1.03479 4.47752
RightToes  0.000482159 0.542163 -0.142577
Spine  38.0932 1.63309 -0.841993
Spine1  -6.17818 4.30162 -21.3269
HEad  -24.4756 -2.139 -10.3801
LeftShoulder1  2.66384 -13.8949 -7.64665
LeftArm  -56.7075 -21.1158 7.90585
LeftForeArm  45.7732 -64.6382 -19.3234
LeftHand  -0.25398 0.0180481 5.50724
RightShoulder  0.186953 2.30332 -5.69763
RightArm  -65.8912 31.3549 -6.89438
RightForeArm  18.738 71.5482 35.8596
RightHand  -9.4694 20.6837 -40.7885
LeftUpLeg  -80.6679 10.1606 -17.9993
LeftLeg  91.7743 -1.20863 13.8577
LeftFoot  -17.9424 -0.00532167 -1.94637
LeftToes  1.06247e-005 4.65854e-005 -8.18502e-006
74
root  27.1709 45.9752 -6.21368 -93.7431 -70.7926 87.4285
RightUpLeg  16.6993 -14.6868 -23.3121
RightLeg  -0.91894 0.66445 3.33859
RightFoot  34.7231 -4.27475 10.8305
RightToes  0.000482159 0.542163 -0.142577
Spine  38.7986 2.79347 -7.1015
Spine1  -8.09495 2.73812 -17.468
HEad  -20.4502 -2.21851 -9.74521
LeftShoulder1  1.05835 -10.5038 0.882771
LeftArm  -63.2469 -26.8249 6.15001
LeftForeArm  54.1139 -71.4144 -27.4534
LeftHand  -0.25398 0.0180481 5.50724
RightShoulder  -0.129164 0.344909 -12.8574
RightArm  -50.6586 19.6966 -10.266
RightForeArm  6.78472 64.2176 23.3709
RightHand  -7.70383 17.8461 -37.4875
LeftUpLeg  -90.5546 10.4117 -23.73
LeftLeg  87.1491 -0.0614754 14.1071
LeftFoot  -16.7505 0.0222543 -1.65695
LeftToes  1.06247e-005 4.65854e-005 -8.18502e-006
75
root  25.5414 48.4422 -6.55397 -85.338 -72.2155 79.1503
RightUpLeg  12.8737 -17.9222 -22.5949
RightLeg  11.3518 4.45833 3.47732
RightFoot  39.1348 -5.96316 13.2715
RightToes  0.000482159 0.542163 -0.142577
Spine  41.4572 3.19283 -10.4628
Spine1  -7.6608 1.08483 -11.4037
HEad  -19.033 -0.200831 -10.7624
LeftShoulder1  0.679255 -7.76306 2.63348
LeftArm  -66.0534 -31.6014 4.72677
LeftForeArm  55.6923 -72.6654 -30.0356
LeftHand  -0.25398 0.0180481 5.50724
RightShoulder  -0.16604 2.00678 -13.2804
RightArm  -35.3028 10.9148 -13.5691
RightForeArm  3.22968 61.249 20.815
RightHand  -5.74512 13.9299 -34.0388
LeftUpLeg  -96.4849 11.6414 -28.0642
LeftLeg  81.3707 1.2716 13.2105
LeftFoot  -15.9815 0.0163897 -1.96684
LeftToes  1.06247e-005 4.65854e-005 -8.18502e-006
76
root  24.2071 50.5504 -6.79632 -78.2956 -73.6908 70.2656
RightUpLeg  3.72303 -17.7289 -19.5173
RightLeg  36.719 6.94237 4.81534
RightFoot  34.8001 -4.91693 12.0725
RightToes  0.000482159 0.542163 -0.142577
Spine  45.4738 2.5999 -12.2832
Spine1  -4.07606 -1.04618 -6.89578
HEad  -19.9624 3.34481 -11.7343
LeftShoulder1  0.882927 -7.39228 0.392415
LeftArm  -62.5163 -34.303 4.45657
LeftForeArm  44.2083 -64.3486 -19.9199
LeftHand  -0.25398 0.0180481 5.50724
RightShoulder  0.0331631 5.18315 -9.19543
RightArm  -27.3681 6.61312 -12.526
RightForeArm  -2.0403 57.0571 17.9282
RightHand  -5.05111 11.9349 -33.3652
LeftUpLeg  -97.724 13.0178 -31.3256
LeftLeg  73.8596 2.52605 11.0608
LeftFoot  -15.0174 -0.00146329 -2.86267
LeftToes  1.06247e-005 4.65854e-005 -8.18502e-006
77
root  22.8875 52.3657 -6.98722 -71.5181 -74.8609 61.75
RightUpLeg  -7.33563 -16.5334 -16.485
RightLeg  61.0396 3.1796 5.43546
RightFoot  30.6533 -3.35636 9.31946
RightToes  0.000482159 0.542163 -0.142577
Spine  50.0336 1.94823 -13.0425
Spine1  -0.683818 -3.13402 -3.96802
HEad  -21.9904 6.91257 -12.5388
LeftShoulder1  1.23685 -8.45103 -2.1801
LeftArm  -53.0698 -34.8066 3.72531
LeftForeArm  31.7175 -46.4939 -9.45312
LeftHand  -0.25398 0.0180481 5.50724
RightShoulder  0.538069 7.30775 -3.88585
RightArm  -22.6996 7.16451 -9.0172
RightForeArm  -8.0854 50.1876 14.0734
RightHand  -4.78722 11.3109 -32.8353
LeftUpLeg  -96.19 14.1397 -32.9902
LeftLeg  65.6554 3.36714 8.84415
LeftFoot  -13.1296 0.0249364 -3.39558
LeftToes  1.06247e-005 4.65854e-005 -8.18502e-006
78
root  21.4365 54.1466 -7.05312 -65.1859 -76.829 55.3535
RightUpLeg  -21.9739 -17.5797 -12.4393
RightLeg  81.441 0.515294 2.10278
RightFoot  27.0521 -2.71755 8.35929
RightToes  0.000482159 0.542163 -0.142577
Spine  54.614 1.65081 -11.8379
Spine1  1.00591 -3.93242 -1.49978
HEad  -24.914 8.85893 -13.6068
LeftShoulder1  1.70266 -9.8976 -4.83105
LeftArm  -38.5056 -33.3292 2.42871
LeftForeArm  25.9896 -28.1333 -4.63256
LeftHand  -0.25398 0.0180481 5.50724
RightShoulder  1.23708 8.63739 2.04572
RightArm  -15.4498 7.38419 -8.46741
RightForeArm  -9.98485 45.9901 12.2391
RightHand  -4.3934 10.9026 -30.9733
LeftUpLeg  -94.0587 15.2788 -32.9911
LeftLeg  57.7339 3.95766 7.27884
LeftFoot  -10.7561 0.0842254 -3.75353
LeftToes  1.06247e-005 4.65854e-005 -8.18502e-006
